<svg xmlns="http://www.w3.org/2000/svg" viewBox="0 0 428.2465 463.0107"><title>Asset 15</title><g id="3eb3c7b7-779b-4a78-ab73-10b3dd572154" data-name="Layer 2"><g id="dd77a484-993d-40fd-a211-592c259b9cb9" data-name="FavIcon"><path d="M428.2465,231.3515q0,111.6763-55.3767,171.6678T214.1232,463.0107q-103.37,0-158.7465-59.9914T0,230.7363Q0,118.4446,55.5305,59.2223,111.0546,0,214.7385,0,318.41,0,373.3313,59.6838,428.2465,119.374,428.2465,231.3515Z" fill="#ffc107"/><g id="f5e4df1c-fca6-4e79-a7c3-f05110b95b03" data-name="Brain"><path d="M327.1222,244.8156h48.2129A34.6749,34.6749,0,0,0,377.344,232.26a37.7184,37.7184,0,0,0-21.0931-33.6486,12.2427,12.2427,0,0,1-6.0266-15.5687,36.0188,36.0188,0,0,0-8.5377-39.173l-9.04,11.0488a25.6111,25.6111,0,0,0-5.5244,15.5687v37.1641a12.5554,12.5554,0,1,1-25.1109,0V195.0961H264.345c-7.0311,0-13.0577-5.5244-13.0577-12.5555a12.4335,12.4335,0,0,1,12.5555-12.5554h37.6663c.5022-11.0488,4.0177-22.0976,11.0488-30.6353l15.0665-18.08v-1.5067A37.3815,37.3815,0,0,0,317.58,94.15a6.37,6.37,0,0,1-3.0133.5022L277.4027,94.15a12.5554,12.5554,0,1,1,0-25.1109h22.6c-5.5244-14.5643-19.5865-25.1109-35.6574-25.1109a37.9407,37.9407,0,0,0-37.6663,37.6663v20.0887L237.2252,112.23a23.5578,23.5578,0,0,0,17.5776,7.5332H276.9c7.031,0,12.5554,5.0222,12.5554,12.0532A12.4335,12.4335,0,0,1,276.9,144.3721H254.8029a50.1549,50.1549,0,0,1-28.1242-8.5377v90.3992a120.6167,120.6167,0,0,1,37.6663-6.0266c7.0311,0,12.0532,5.5244,12.0532,12.5555a12.4334,12.4334,0,0,1-12.5554,12.5554c-13.0577,0-25.6131,3.0133-37.6663,8.0355v84.8748a46.9742,46.9742,0,0,1,21.5953-5.0222h16.071a12.5554,12.5554,0,0,1,0,25.1109h-16.071a29.3888,29.3888,0,0,0-11.0488,2.5111L226.6787,365.85h.5022V381.921a37.185,37.185,0,0,0,8.5377,24.1065l20.0887-20.0887c4.52-5.0222,12.5555-5.0222,17.5776,0,5.0222,4.52,5.0222,12.5554,0,17.5776l-15.5687,15.5687a26.533,26.533,0,0,0,6.5288.5022,37.6888,37.6888,0,0,0,36.6619-28.1242v-.5022L295.9847,365.85a12.51,12.51,0,1,1,24.6087-4.52l4.0177,20.0887a37.6668,37.6668,0,0,0,27.622-36.16,24.867,24.867,0,0,0-25.1109-25.1109H302.0113a37.9406,37.9406,0,0,1-37.6663-37.6663,12.5554,12.5554,0,0,1,25.1109,0,12.4335,12.4335,0,0,0,12.5555,12.5555h25.1109a49.9971,49.9971,0,0,1,42.1863,23.102,37.9184,37.9184,0,0,0,8.0355-23.102,36.83,36.83,0,0,0-8.5377-23.6042c-.5022-.5022-.5022-1.0045-1.0044-1.5067h-40.68a12.5554,12.5554,0,0,1,0-25.1109Z" fill="#3b3b3b"/><path d="M163.9015,44.4308a37.7241,37.7241,0,0,0-34.6531,23.102l21.0932,10.5466c6.0266,3.5155,8.5377,11.0488,5.5244,17.0754a12.0414,12.0414,0,0,1-11.0488,7.0311,11.4474,11.4474,0,0,1-5.5244-1.5067L117.6974,89.63a38.3318,38.3318,0,0,0-16.5732,31.1375v3.0133l30.133,50.724c4.52,6.0266,11.551,9.04,19.0843,9.04h13.0576a12.5554,12.5554,0,1,1,0,25.1109H150.3416c-2.0089,0-4.0177-.5022-6.0266-.5022L122.72,229.7491a13.3805,13.3805,0,0,1-18.08,0c-5.0222-4.52-5.0222-12.5555,0-17.5776l14.5643-14.5644a60.7409,60.7409,0,0,1-8.0355-8.0354c-.5022-.5022-.5022-1.0045-1.0044-1.5067L85.0533,145.8788a36.8014,36.8014,0,0,0-9.5421,24.6086,40.1013,40.1013,0,0,0,2.5111,13.0577,11.9614,11.9614,0,0,1-6.0266,15.5687,36.6272,36.6272,0,0,0-21.0931,33.6486,34.6756,34.6756,0,0,0,2.0088,12.5554H88.5688c7.0311,0,12.0532,5.5244,12.0532,12.5555a12.4335,12.4335,0,0,1-12.5555,12.5555H59.9424c-.5022.5022-.5022,1.0044-1.0044,1.5066A40.5332,40.5332,0,0,0,50.9025,295.54c0,10.5466,4.0177,20.0887,11.551,26.6176l17.0754-17.0754c4.52-5.0222,12.5555-5.0222,17.5776,0,5.0222,4.52,5.0222,12.5555,0,17.5776L75.5111,344.2548v1.0044a37.9407,37.9407,0,0,0,37.6663,37.6663h1.5067a12.82,12.82,0,0,1,12.0532,9.5421,38.1839,38.1839,0,0,0,24.1065,26.1153V398.4943a25.5758,25.5758,0,0,0-7.5333-17.5776l-14.0621-14.0621c-5.0222-4.52-5.0222-12.5554,0-17.5776,4.52-5.0222,12.5554-5.0222,17.5776,0l14.0621,14.0621a49.7078,49.7078,0,0,1,14.5643,35.6575v20.0887c14.5643-5.5244,25.1109-19.0843,25.1109-35.6575V333.206h-27.12a49.6167,49.6167,0,0,1-44.6973-27.622l-8.5377-17.0754c-3.0133-6.5289-.5022-14.0621,5.5244-17.0754,6.5288-3.0133,14.0621-.5022,17.0754,5.5244l8.5377,17.0754a25.7054,25.7054,0,0,0,22.6,14.0621h27.12v-45.2a53.6334,53.6334,0,0,1-12.5555,1.5067c-10.5466,0-21.0931-2.0089-30.6353-7.0311-6.0266-3.5156-8.5377-11.0488-5.5244-17.0754,3.5155-6.0266,11.0488-8.5377,17.0754-5.5244,10.0444,5.0222,21.5954,5.5244,32.1419,2.5111V162.9542l-10.5466-10.5466a23.5576,23.5576,0,0,0-17.5776-7.5333h-9.5421a12.5554,12.5554,0,1,1,0-25.1109h9.5421a50.155,50.155,0,0,1,28.1242,8.5377V82.0971A37.9406,37.9406,0,0,0,163.9015,44.4308Z" fill="#3b3b3b"/><path d="M402.4549,232.7624c0-20.5909-10.0443-39.173-26.1153-51.2262a46.93,46.93,0,0,0,1.0044-11.551c0-20.0888-9.5421-38.1686-25.1109-50.2218a62.3935,62.3935,0,0,0-26.6176-51.2262A62.7583,62.7583,0,0,0,214.1232,44.4308,62.7583,62.7583,0,0,0,102.6309,68.5372a62.3936,62.3936,0,0,0-26.6175,51.2262,62.5522,62.5522,0,0,0-25.1109,50.2218,82.434,82.434,0,0,0,1.0044,11.551c-16.5732,11.551-26.1153,30.6353-26.1153,51.2262a63.5917,63.5917,0,0,0,8.5377,31.64,63.5918,63.5918,0,0,0-8.5377,31.64c0,19.0843,9.5421,37.6663,25.1109,49.72a62.5508,62.5508,0,0,0,55.244,62.275,62.054,62.054,0,0,0,57.755,38.1686,63.2562,63.2562,0,0,0,50.2217-25.1109,63.2564,63.2564,0,0,0,50.2218,25.1109c25.6131,0,47.7107-15.0665,57.755-38.1686a62.5508,62.5508,0,0,0,55.244-62.275A62.5523,62.5523,0,0,0,402.4549,295.54a63.5915,63.5915,0,0,0-8.5377-31.64A63.1644,63.1644,0,0,0,402.4549,232.7624ZM201.5678,128.3011a50.155,50.155,0,0,0-28.1242-8.5377h-9.5421a12.5554,12.5554,0,1,0,0,25.1109h9.5421a23.5576,23.5576,0,0,1,17.5776,7.5333l10.5466,10.5466v74.3282c-10.5466,3.0133-22.0976,2.5111-32.1419-2.5111-6.0266-3.0133-13.56-.5022-17.0754,5.5244-3.0133,6.0266-.5022,13.56,5.5244,17.0754,9.5421,5.0222,20.0887,7.0311,30.6353,7.0311a53.6334,53.6334,0,0,0,12.5555-1.5067v45.2h-27.12a25.7054,25.7054,0,0,1-22.6-14.0621l-8.5377-17.0754c-3.0133-6.0266-10.5466-8.5377-17.0754-5.5244-6.0266,3.0133-8.5377,10.5466-5.5244,17.0754l8.5377,17.0754a49.6167,49.6167,0,0,0,44.6973,27.622h27.12v50.2217c0,16.5732-10.5466,30.1331-25.1109,35.6575V398.9965a49.7078,49.7078,0,0,0-14.5643-35.6575l-14.0621-14.0621c-5.0222-5.0222-13.0577-5.0222-17.5776,0-5.0222,5.0222-5.0222,13.0577,0,17.5776l14.0621,14.0621a25.5758,25.5758,0,0,1,7.5333,17.5776V418.583a38.1839,38.1839,0,0,1-24.1065-26.1153,12.82,12.82,0,0,0-12.0532-9.5421h-1.5067a37.9407,37.9407,0,0,1-37.6663-37.6663v-1.0044l21.5954-21.5954c5.0222-5.0222,5.0222-13.0576,0-17.5776-5.0222-5.0222-13.0576-5.0222-17.5776,0L62.4535,322.1572c-7.5332-6.5289-11.551-16.0711-11.551-26.6176a40.5332,40.5332,0,0,1,8.0355-23.6043c.5022-.5022.5022-1.0044,1.0044-1.5066H88.0666a12.4335,12.4335,0,0,0,12.5555-12.5555c0-7.0311-5.0222-12.5555-12.0532-12.5555H52.9113a34.6756,34.6756,0,0,1-2.0088-12.5554,36.6272,36.6272,0,0,1,21.0931-33.6486,11.9614,11.9614,0,0,0,6.0266-15.5687,40.1013,40.1013,0,0,1-2.5111-13.0577,36.8014,36.8014,0,0,1,9.5421-24.6086l25.1109,42.1863c.5022.5022.5022,1.0044,1.0044,1.5067a60.7409,60.7409,0,0,0,8.0355,8.0354L104.64,212.1715c-5.0222,5.0222-5.0222,13.0576,0,17.5776a13.3805,13.3805,0,0,0,18.08,0l21.5954-21.5954c2.0089,0,4.0177.5022,6.0266.5022h13.0576a12.5554,12.5554,0,1,0,0-25.1109H150.3416c-7.5333,0-14.5643-3.0133-19.0843-9.04l-30.133-50.724v-3.0133A38.3318,38.3318,0,0,1,117.6974,89.63l21.5954,11.0488a11.4474,11.4474,0,0,0,5.5244,1.5067,12.0414,12.0414,0,0,0,11.0488-7.0311c3.0133-6.0266.5022-13.56-5.5244-17.0754L129.2484,67.5327a37.6162,37.6162,0,0,1,72.3194,14.5644ZM327.1222,269.9265h40.68c.5022.5022.5022,1.0044,1.0044,1.5067a36.83,36.83,0,0,1,8.5377,23.6042,37.9184,37.9184,0,0,1-8.0355,23.102,49.9971,49.9971,0,0,0-42.1863-23.102H302.0113a12.4335,12.4335,0,0,1-12.5555-12.5555,12.5554,12.5554,0,0,0-25.1109,0,37.9406,37.9406,0,0,0,37.6663,37.6663h25.1109a24.867,24.867,0,0,1,25.1109,25.1109,37.6668,37.6668,0,0,1-27.622,36.16L320.5933,361.33a12.51,12.51,0,1,0-24.6087,4.52l5.0222,25.1109v.5022a37.6888,37.6888,0,0,1-36.6619,28.1242,26.533,26.533,0,0,1-6.5288-.5022l15.5687-15.5687c5.0222-5.0222,5.0222-13.0576,0-17.5776-5.0222-5.0222-13.0576-5.0222-17.5776,0l-20.0887,20.0887a37.185,37.185,0,0,1-8.5377-24.1065V365.85h-.5022l10.0444-5.0222a29.3888,29.3888,0,0,1,11.0488-2.5111h16.071a12.5554,12.5554,0,0,0,0-25.1109h-16.071a46.9742,46.9742,0,0,0-21.5953,5.0222V253.3533c12.0532-5.0222,24.6086-8.0355,37.6663-8.0355a12.4334,12.4334,0,0,0,12.5554-12.5554c0-7.0311-5.0222-12.5555-12.0532-12.5555a120.6167,120.6167,0,0,0-37.6663,6.0266V135.8344a50.1549,50.1549,0,0,0,28.1242,8.5377H276.9a12.4335,12.4335,0,0,0,12.5554-12.5555c0-7.0311-5.5244-12.0532-12.5554-12.0532H254.8029a23.5578,23.5578,0,0,1-17.5776-7.5332l-10.5466-10.5466V81.5949A37.9407,37.9407,0,0,1,264.345,43.9285c16.071,0,30.1331,10.5466,35.6574,25.1109h-22.6a12.5554,12.5554,0,1,0,0,25.1109l37.1641.5022A6.37,6.37,0,0,0,317.58,94.15a37.3815,37.3815,0,0,1,10.0444,25.6131V121.27l-15.0665,18.08c-7.0311,8.5377-10.5466,19.5865-11.0488,30.6353H263.8428a12.4335,12.4335,0,0,0-12.5555,12.5554c0,7.0311,6.0266,12.5555,13.0577,12.5555h37.6663v12.5554a12.5554,12.5554,0,1,0,25.1109,0V170.4874a25.6111,25.6111,0,0,1,5.5244-15.5687l9.04-11.0488a36.0188,36.0188,0,0,1,8.5377,39.173,12.2427,12.2427,0,0,0,6.0266,15.5687A37.7184,37.7184,0,0,1,377.344,232.26a34.6749,34.6749,0,0,1-2.0089,12.5555H327.1222a12.5554,12.5554,0,0,0,0,25.1109Z" fill="#ffc107"/></g></g></g></svg>